{"title":"One By Two (2014) - DvdScrRip - XviD - 1CD {MaXX Releasers}","uid":9553975,"size":835193405,"categoryP":"video","categoryS":"movies","magnet":"?xt=urn:btih:2bfcf5ff3aa58b3537de88e7772387523ad471a1&amp;dn=One+By+Two+%282014%29+-+DvdScrRip+-+XviD+-+1CD+%7BMaXX+Releasers%7D&amp;tr=udp%3A%2F%2Ftracker.openbittorrent.com%3A80&amp;tr=udp%3A%2F%2Fopen.demonii.com%3A1337&amp;tr=udp%3A%2F%2Ftracker.coppersurfer.tk%3A6969&amp;tr=udp%3A%2F%2Fexodus.desync.com%3A6969","seeders":0,"leechers":1,"uploader":"shailendramaxx","files":19,"time":1391321729,"description":"MAXX RELEASERS PRESENTS\n\nComplete name :One By Two (2014) - DvdScrRip - XviD - 1CD {MaXX Releasers}\n\nFormat : AVI \nFormat/Info : Audio Video Interleave \nFile size : 786 MiB \nDuration : 2h 10mn \nOverall bit rate : 841 Kbps \nWriting application : Lavf52.61.0 \nWriting library : Boilsoft AVI tool build 1/release \n\nVideo:-\n\nID : 0 \nFormat : MPEG-4 Visual \nFormat profile : Simple@L6 \nFormat settings, BVOP : No \nFormat settings, QPel : No \nFormat settings, GMC : No warppoints \nFormat settings, Matrix : Default (H.263) \nCodec ID : XVID \nCodec ID/Hint : XviD \nDuration : 2h 10mn \nBit rate : 700 Kbps \nWidth : 640 pixels \nHeight : 272 pixels \nDisplay aspect ratio : 2.35:1 \nFrame rate : 29.970 fps \nColor space : YUV \nChroma subsampling : 4:2:0 \nBit depth : 8 bits \nScan type : Progressive \nCompression mode : Lossy \nBits/(Pixel*Frame) : 0.134 \nStream size : 654 MiB (83%) \nWriting library : XviD 64 \n\nAudio:-\n\nID : 1 \nFormat : MPEG Audio \nFormat version : Version 1 \nFormat profile : Layer 3 \nMode : Joint stereo \nMode extension : MS Stereo \nCodec ID : 55 \nCodec ID/Hint : MP3 \nDuration : 2h 10mn \nBit rate mode : Constant \nBit rate : 128 Kbps \nChannel(s) : 2 channels \nSampling rate : 44.1 KHz \nCompression mode : Lossy \nStream size : 120 MiB (15%) \nAlignment : Aligned on interleaves \nInterleave, duration : 26 ms (0.78 video frame) \nInterleave, preload duration : 522 ms \nWriting library : LAME3.97 \n\nLANGUAGE :- HINDI\n\nSCREENS:-\n\n[URL=http://imgur.com/PHUZKKr][IMG]http://i.imgur.com/PHUZKKr.png[/IMG][/URL]\n\n[URL=http://imgur.com/xD8YHsh][IMG]http://i.imgur.com/xD8YHsh.png[/IMG][/URL]\n\n[URL=http://imgur.com/AaYusiw][IMG]http://i.imgur.com/AaYusiw.png[/IMG][/URL]\n\n[URL=http://imgur.com/kaTUJSq][IMG]http://i.imgur.com/kaTUJSq.png[/IMG][/URL]\n\n[URL=http://imgur.com/5xJE6l0][IMG]http://i.imgur.com/5xJE6l0.png[/IMG][/URL]\n\n[URL=http://imgur.com/9QW0Fty][IMG]http://i.imgur.com/9QW0Fty.png[/IMG][/URL]\n\n[URL=http://imgur.com/UCpAnDh][IMG]http://i.imgur.com/UCpAnDh.png[/IMG][/URL]\n\n[URL=http://imgur.com/puydLvw][IMG]http://i.imgur.com/puydLvw.png[/IMG][/URL]\n\nSCREENS AND SAMPLE INCLUDED\n   \n ************ PLEASE SEED AFTER DOWNLOAD **********\n\n  ********** THANK YOU REGARDS VIKKYMAXX ***********","torrent":{"xt":"urn:btih:2bfcf5ff3aa58b3537de88e7772387523ad471a1","amp;dn":"One+By+Two+%282014%29+-+DvdScrRip+-+XviD+-+1CD+%7BMaXX+Releasers%7D","amp;tr":["udp%3A%2F%2Ftracker.openbittorrent.com%3A80","udp%3A%2F%2Fopen.demonii.com%3A1337","udp%3A%2F%2Ftracker.coppersurfer.tk%3A6969","udp%3A%2F%2Fexodus.desync.com%3A6969"],"infoHash":"2bfcf5ff3aa58b3537de88e7772387523ad471a1","infoHashBuffer":{"type":"Buffer","data":[43,252,245,255,58,165,139,53,55,222,136,231,119,35,135,82,58,212,113,161]},"announce":[],"urlList":[]}}